<?xml version="1.0" encoding="UTF-8" standalone="no"?>
<!-- Generator: Adobe Illustrator 16.0.0, SVG Export Plug-In . SVG Version: 6.00 Build 0)  -->

<svg
   xmlns:dc="http://purl.org/dc/elements/1.1/"
   xmlns:cc="http://creativecommons.org/ns#"
   xmlns:rdf="http://www.w3.org/1999/02/22-rdf-syntax-ns#"
   xmlns:svg="http://www.w3.org/2000/svg"
   xmlns="http://www.w3.org/2000/svg"
   xmlns:sodipodi="http://sodipodi.sourceforge.net/DTD/sodipodi-0.dtd"
   xmlns:inkscape="http://www.inkscape.org/namespaces/inkscape"
   version="1.1"
   id="Capa_1"
   x="0px"
   y="0px"
   width="22.258px"
   height="22.258px"
   viewBox="0 0 22.258 22.258"
   style="enable-background:new 0 0 22.258 22.258;"
   xml:space="preserve"
   sodipodi:docname="linkedin-logo.svg"
   inkscape:version="0.92.4 (5da689c313, 2019-01-14)"><metadata
   id="metadata41"><rdf:RDF><cc:Work
       rdf:about=""><dc:format>image/svg+xml</dc:format><dc:type
         rdf:resource="http://purl.org/dc/dcmitype/StillImage" /></cc:Work></rdf:RDF></metadata><defs
   id="defs39" /><sodipodi:namedview
   pagecolor="#ffffff"
   bordercolor="#666666"
   borderopacity="1"
   objecttolerance="10"
   gridtolerance="10"
   guidetolerance="10"
   inkscape:pageopacity="0"
   inkscape:pageshadow="2"
   inkscape:window-width="828"
   inkscape:window-height="480"
   id="namedview37"
   showgrid="false"
   inkscape:zoom="10.60293"
   inkscape:cx="11.129"
   inkscape:cy="11.129"
   inkscape:window-x="0"
   inkscape:window-y="0"
   inkscape:window-maximized="0"
   inkscape:current-layer="Capa_1" />
<g
   id="g4"
   style="fill:#ffffff">
	<path
   d="M5.366,2.973c0,1.376-1.035,2.479-2.699,2.479H2.636C1.034,5.453,0,4.348,0,2.973c0-1.409,1.067-2.482,2.698-2.482   C4.331,0.49,5.336,1.564,5.366,2.973z M0.28,21.766h4.772V7.413H0.28V21.766z M16.764,7.077c-2.531,0-3.664,1.39-4.301,2.37v0.046   h-0.031c0.012-0.014,0.023-0.03,0.031-0.046V7.414H7.692c0.062,1.345,0,14.353,0,14.353h4.771v-8.016   c0-0.432,0.029-0.855,0.157-1.164c0.346-0.854,1.132-1.747,2.446-1.747c1.729,0,2.42,1.319,2.42,3.247v7.68h4.771v-8.229   C22.258,9.126,19.902,7.077,16.764,7.077z"
   id="path2"
   style="fill:#ffffff" />
</g>
<g
   id="g6">
</g>
<g
   id="g8">
</g>
<g
   id="g10">
</g>
<g
   id="g12">
</g>
<g
   id="g14">
</g>
<g
   id="g16">
</g>
<g
   id="g18">
</g>
<g
   id="g20">
</g>
<g
   id="g22">
</g>
<g
   id="g24">
</g>
<g
   id="g26">
</g>
<g
   id="g28">
</g>
<g
   id="g30">
</g>
<g
   id="g32">
</g>
<g
   id="g34">
</g>
</svg>